<svg xmlns="http://www.w3.org/2000/svg" xmlns:xlink="http://www.w3.org/1999/xlink" width="947" height="516"><source><![CDATA[#Docker Exec
Docker->kata runtime: exec
kata runtime->virtcontainers: EnterContainer()
virtcontainers->agent: exec
agent->virtcontainers: Process started in the container
virtcontainers->shim: start shim
shim->agent: ReadStdout()
shim->agent: ReadStderr()
shim->agent: WaitProcess()
virtcontainers->kata runtime: End of EnterContainer()
kata runtime-->Docker: End of exec]]></source><desc/><defs><marker id="markerArrowBlock" markerHeight="5" markerWidth="5" orient="auto" refX="5" refY="2.5" viewBox="0 0 5 5"><path d="M 0 0 L 5 2.5 L 0 5 z"/></marker><marker id="markerArrowOpen" markerHeight="16" markerWidth="4" orient="auto" refX="9.6" refY="8" viewBox="0 0 9.6 16"><path d="M 9.6,8 1.92,16 0,13.7 5.76,8 0,2.286 1.92,0 9.6,8 z"/></marker></defs><g class="actor"><rect width="77.609" height="38" x="10" y="20" fill="#fff" stroke="#000" style="stroke-width:2px"/><text x="20" y="44.516" style="font-size:16px;font-family:&quot;Andale Mono&quot;,monospace"><tspan x="20">Docker</tspan></text></g><g class="actor"><rect width="77.609" height="38" x="10" y="458" fill="#fff" stroke="#000" style="stroke-width:2px"/><text x="20" y="482.516" style="font-size:16px;font-family:&quot;Andale Mono&quot;,monospace"><tspan x="20">Docker</tspan></text></g><line x1="48.805" x2="48.805" y1="58" y2="458" fill="none" stroke="#000" style="stroke-width:2px"/><g class="actor"><rect width="135.219" height="38" x="107.609" y="20" fill="#fff" stroke="#000" style="stroke-width:2px"/><text x="117.609" y="44.516" style="font-size:16px;font-family:&quot;Andale Mono&quot;,monospace"><tspan x="117.609">kata runtime</tspan></text></g><g class="actor"><rect width="135.219" height="38" x="107.609" y="458" fill="#fff" stroke="#000" style="stroke-width:2px"/><text x="117.609" y="482.516" style="font-size:16px;font-family:&quot;Andale Mono&quot;,monospace"><tspan x="117.609">kata runtime</tspan></text></g><line x1="175.219" x2="175.219" y1="58" y2="458" fill="none" stroke="#000" style="stroke-width:2px"/><g class="actor"><rect width="154.422" height="38" x="338.852" y="20" fill="#fff" stroke="#000" style="stroke-width:2px"/><text x="348.852" y="44.516" style="font-size:16px;font-family:&quot;Andale Mono&quot;,monospace"><tspan x="348.852">virtcontainers</tspan></text></g><g class="actor"><rect width="154.422" height="38" x="338.852" y="458" fill="#fff" stroke="#000" style="stroke-width:2px"/><text x="348.852" y="482.516" style="font-size:16px;font-family:&quot;Andale Mono&quot;,monospace"><tspan x="348.852">virtcontainers</tspan></text></g><line x1="416.063" x2="416.063" y1="58" y2="458" fill="none" stroke="#000" style="stroke-width:2px"/><g class="actor"><rect width="68.016" height="38" x="709.305" y="20" fill="#fff" stroke="#000" style="stroke-width:2px"/><text x="719.305" y="44.516" style="font-size:16px;font-family:&quot;Andale Mono&quot;,monospace"><tspan x="719.305">agent</tspan></text></g><g class="actor"><rect width="68.016" height="38" x="709.305" y="458" fill="#fff" stroke="#000" style="stroke-width:2px"/><text x="719.305" y="482.516" style="font-size:16px;font-family:&quot;Andale Mono&quot;,monospace"><tspan x="719.305">agent</tspan></text></g><line x1="743.313" x2="743.313" y1="58" y2="458" fill="none" stroke="#000" style="stroke-width:2px"/><g class="actor"><rect width="58.406" height="38" x="858.938" y="20" fill="#fff" stroke="#000" style="stroke-width:2px"/><text x="868.938" y="44.516" style="font-size:16px;font-family:&quot;Andale Mono&quot;,monospace"><tspan x="868.938">shim</tspan></text></g><g class="actor"><rect width="58.406" height="38" x="858.938" y="458" fill="#fff" stroke="#000" style="stroke-width:2px"/><text x="868.938" y="482.516" style="font-size:16px;font-family:&quot;Andale Mono&quot;,monospace"><tspan x="868.938">shim</tspan></text></g><line x1="888.141" x2="888.141" y1="58" y2="458" fill="none" stroke="#000" style="stroke-width:2px"/><g class="signal"><text x="92.809" y="88.516" style="font-size:16px;font-family:&quot;Andale Mono&quot;,monospace"><tspan x="92.809">exec</tspan></text><line x1="48.805" x2="175.219" y1="96" y2="96" fill="none" stroke="#000" style="stroke-width:2px;marker-end:url(#markerArrowBlock)"/></g><g class="signal"><text x="218.828" y="126.516" style="font-size:16px;font-family:&quot;Andale Mono&quot;,monospace"><tspan x="218.828">EnterContainer()</tspan></text><line x1="175.219" x2="416.063" y1="134" y2="134" fill="none" stroke="#000" style="stroke-width:2px;marker-end:url(#markerArrowBlock)"/></g><g class="signal"><text x="560.484" y="164.516" style="font-size:16px;font-family:&quot;Andale Mono&quot;,monospace"><tspan x="560.484">exec</tspan></text><line x1="416.063" x2="743.313" y1="172" y2="172" fill="none" stroke="#000" style="stroke-width:2px;marker-end:url(#markerArrowBlock)"/></g><g class="signal"><text x="426.063" y="202.516" style="font-size:16px;font-family:&quot;Andale Mono&quot;,monospace"><tspan x="426.063">Process started in the container</tspan></text><line x1="743.313" x2="416.063" y1="210" y2="210" fill="none" stroke="#000" style="stroke-width:2px;marker-end:url(#markerArrowBlock)"/></g><g class="signal"><text x="604.094" y="240.516" style="font-size:16px;font-family:&quot;Andale Mono&quot;,monospace"><tspan x="604.094">start shim</tspan></text><line x1="416.063" x2="888.141" y1="248" y2="248" fill="none" stroke="#000" style="stroke-width:2px;marker-end:url(#markerArrowBlock)"/></g><g class="signal"><text x="758.117" y="278.516" style="font-size:16px;font-family:&quot;Andale Mono&quot;,monospace"><tspan x="758.117">ReadStdout()</tspan></text><line x1="888.141" x2="743.313" y1="286" y2="286" fill="none" stroke="#000" style="stroke-width:2px;marker-end:url(#markerArrowBlock)"/></g><g class="signal"><text x="758.117" y="316.516" style="font-size:16px;font-family:&quot;Andale Mono&quot;,monospace"><tspan x="758.117">ReadStderr()</tspan></text><line x1="888.141" x2="743.313" y1="324" y2="324" fill="none" stroke="#000" style="stroke-width:2px;marker-end:url(#markerArrowBlock)"/></g><g class="signal"><text x="753.313" y="354.516" style="font-size:16px;font-family:&quot;Andale Mono&quot;,monospace"><tspan x="753.313">WaitProcess()</tspan></text><line x1="888.141" x2="743.313" y1="362" y2="362" fill="none" stroke="#000" style="stroke-width:2px;marker-end:url(#markerArrowBlock)"/></g><g class="signal"><text x="185.219" y="392.516" style="font-size:16px;font-family:&quot;Andale Mono&quot;,monospace"><tspan x="185.219">End of EnterContainer()</tspan></text><line x1="416.063" x2="175.219" y1="400" y2="400" fill="none" stroke="#000" style="stroke-width:2px;marker-end:url(#markerArrowBlock)"/></g><g class="signal"><text x="59.199" y="430.516" style="font-size:16px;font-family:&quot;Andale Mono&quot;,monospace"><tspan x="59.199">End of exec</tspan></text><line x1="175.219" x2="48.805" y1="438" y2="438" fill="none" stroke="#000" style="stroke-width:2px;stroke-dasharray:6px,2px;marker-end:url(#markerArrowBlock)"/></g></svg>