<svg xmlns="http://www.w3.org/2000/svg" xmlns:xlink="http://www.w3.org/1999/xlink" width="730" height="536"><source><![CDATA[Docker->Kata Runtime: start
Kata Runtime->virtcontainers: StartSandbox()
Note left of virtcontainers: Sandbox\nRunning
virtcontainers->agent: StartContainer()
agent-->virtcontainers: Container Started
Note left of virtcontainers: Container-pod\nRunning
virtcontainers->virtcontainers: Execute PostStart Hooks
virtcontainers-->Kata Runtime: End of StartSandbox()
Kata Runtime-->Docker: End of start]]></source><desc/><defs><marker id="markerArrowBlock" markerHeight="5" markerWidth="5" orient="auto" refX="5" refY="2.5" viewBox="0 0 5 5"><path d="M 0 0 L 5 2.5 L 0 5 z"/></marker><marker id="markerArrowOpen" markerHeight="16" markerWidth="4" orient="auto" refX="9.6" refY="8" viewBox="0 0 9.6 16"><path d="M 9.6,8 1.92,16 0,13.7 5.76,8 0,2.286 1.92,0 9.6,8 z"/></marker></defs><g class="actor"><rect width="77.609" height="38" x="10" y="20" fill="#fff" stroke="#000" style="stroke-width:2px"/><text x="20" y="44.516" style="font-size:16px;font-family:&quot;Andale Mono&quot;,monospace"><tspan x="20">Docker</tspan></text></g><g class="actor"><rect width="77.609" height="38" x="10" y="478.406" fill="#fff" stroke="#000" style="stroke-width:2px"/><text x="20" y="502.922" style="font-size:16px;font-family:&quot;Andale Mono&quot;,monospace"><tspan x="20">Docker</tspan></text></g><line x1="48.805" x2="48.805" y1="58" y2="478.406" fill="none" stroke="#000" style="stroke-width:2px"/><g class="actor"><rect width="135.219" height="38" x="116.414" y="20" fill="#fff" stroke="#000" style="stroke-width:2px"/><text x="126.414" y="44.516" style="font-size:16px;font-family:&quot;Andale Mono&quot;,monospace"><tspan x="126.414">Kata Runtime</tspan></text></g><g class="actor"><rect width="135.219" height="38" x="116.414" y="478.406" fill="#fff" stroke="#000" style="stroke-width:2px"/><text x="126.414" y="502.922" style="font-size:16px;font-family:&quot;Andale Mono&quot;,monospace"><tspan x="126.414">Kata Runtime</tspan></text></g><line x1="184.023" x2="184.023" y1="58" y2="478.406" fill="none" stroke="#000" style="stroke-width:2px"/><g class="actor"><rect width="154.422" height="38" x="328.453" y="20" fill="#fff" stroke="#000" style="stroke-width:2px"/><text x="338.453" y="44.516" style="font-size:16px;font-family:&quot;Andale Mono&quot;,monospace"><tspan x="338.453">virtcontainers</tspan></text></g><g class="actor"><rect width="154.422" height="38" x="328.453" y="478.406" fill="#fff" stroke="#000" style="stroke-width:2px"/><text x="338.453" y="502.922" style="font-size:16px;font-family:&quot;Andale Mono&quot;,monospace"><tspan x="338.453">virtcontainers</tspan></text></g><line x1="405.664" x2="405.664" y1="58" y2="478.406" fill="none" stroke="#000" style="stroke-width:2px"/><g class="actor"><rect width="68.016" height="38" x="632.5" y="20" fill="#fff" stroke="#000" style="stroke-width:2px"/><text x="642.5" y="44.516" style="font-size:16px;font-family:&quot;Andale Mono&quot;,monospace"><tspan x="642.5">agent</tspan></text></g><g class="actor"><rect width="68.016" height="38" x="632.5" y="478.406" fill="#fff" stroke="#000" style="stroke-width:2px"/><text x="642.5" y="502.922" style="font-size:16px;font-family:&quot;Andale Mono&quot;,monospace"><tspan x="642.5">agent</tspan></text></g><line x1="666.508" x2="666.508" y1="58" y2="478.406" fill="none" stroke="#000" style="stroke-width:2px"/><g class="signal"><text x="92.406" y="88.516" style="font-size:16px;font-family:&quot;Andale Mono&quot;,monospace"><tspan x="92.406">start</tspan></text><line x1="48.805" x2="184.023" y1="96" y2="96" fill="none" stroke="#000" style="stroke-width:2px;marker-end:url(#markerArrowBlock)"/></g><g class="signal"><text x="227.633" y="126.516" style="font-size:16px;font-family:&quot;Andale Mono&quot;,monospace"><tspan x="227.633">StartSandbox()</tspan></text><line x1="184.023" x2="405.664" y1="134" y2="134" fill="none" stroke="#000" style="stroke-width:2px;marker-end:url(#markerArrowBlock)"/></g><g class="note"><rect width="77.219" height="47.203" x="308.445" y="154" fill="#fff" stroke="#000" style="stroke-width:2px"/><text x="313.445" y="173.516" style="font-size:16px;font-family:&quot;Andale Mono&quot;,monospace"><tspan x="313.445">Sandbox</tspan><tspan x="313.445" dy="1.2em">Running</tspan></text></g><g class="signal"><text x="459.273" y="231.719" style="font-size:16px;font-family:&quot;Andale Mono&quot;,monospace"><tspan x="459.273">StartContainer()</tspan></text><line x1="405.664" x2="666.508" y1="239.203" y2="239.203" fill="none" stroke="#000" style="stroke-width:2px;marker-end:url(#markerArrowBlock)"/></g><g class="signal"><text x="454.469" y="269.719" style="font-size:16px;font-family:&quot;Andale Mono&quot;,monospace"><tspan x="454.469">Container Started</tspan></text><line x1="666.508" x2="405.664" y1="277.203" y2="277.203" fill="none" stroke="#000" style="stroke-width:2px;stroke-dasharray:6px,2px;marker-end:url(#markerArrowBlock)"/></g><g class="note"><rect width="134.828" height="47.203" x="250.836" y="297.203" fill="#fff" stroke="#000" style="stroke-width:2px"/><text x="255.836" y="316.719" style="font-size:16px;font-family:&quot;Andale Mono&quot;,monospace"><tspan x="255.836">Container-pod</tspan><tspan x="255.836" dy="1.2em">Running</tspan></text></g><g class="signal"><text x="430.664" y="378.406" style="font-size:16px;font-family:&quot;Andale Mono&quot;,monospace"><tspan x="430.664">Execute PostStart Hooks</tspan></text><line x1="405.664" x2="425.664" y1="364.406" y2="364.406" fill="none" stroke="#000" style="stroke-width:2px"/><line x1="425.664" x2="425.664" y1="364.406" y2="387.406" fill="none" stroke="#000" style="stroke-width:2px"/><line x1="425.664" x2="405.664" y1="387.406" y2="387.406" fill="none" stroke="#000" style="stroke-width:2px;marker-end:url(#markerArrowBlock)"/></g><g class="signal"><text x="194.023" y="412.922" style="font-size:16px;font-family:&quot;Andale Mono&quot;,monospace"><tspan x="194.023">End of StartSandbox()</tspan></text><line x1="405.664" x2="184.023" y1="420.406" y2="420.406" fill="none" stroke="#000" style="stroke-width:2px;stroke-dasharray:6px,2px;marker-end:url(#markerArrowBlock)"/></g><g class="signal"><text x="58.805" y="450.922" style="font-size:16px;font-family:&quot;Andale Mono&quot;,monospace"><tspan x="58.805">End of start</tspan></text><line x1="184.023" x2="48.805" y1="458.406" y2="458.406" fill="none" stroke="#000" style="stroke-width:2px;stroke-dasharray:6px,2px;marker-end:url(#markerArrowBlock)"/></g></svg>